<?xml version="1.0" encoding="UTF-8" standalone="yes"?><svg xmlns="http://www.w3.org/2000/svg" xmlns:xlink="http://www.w3.org/1999/xlink" height="242pt" style="width:164px;height:242px;" version="1.1" viewBox="0 0 164 242" width="164pt"><defs><filter height="300%" id="f1" width="300%" x="-1" y="-1"><feGaussianBlur result="blurOut" stdDeviation="2.0"/><feColorMatrix in="blurOut" result="blurOut2" type="matrix" values="0 0 0 0 0 0 0 0 0 0 0 0 0 0 0 0 0 0 .4 0"/><feOffset dx="4.0" dy="4.0" in="blurOut2" result="blurOut3"/><feBlend in="SourceGraphic" in2="blurOut3" mode="normal"/></filter></defs><g><rect fill="#FEFECE" filter="url(#f1)" height="58.043" style="stroke: #A80036; stroke-width: 1.5;" width="64" x="46" y="8"/><text fill="#000000" font-family="sans-serif" font-size="12" lengthAdjust="spacingAndGlyphs" textLength="39" x="58.5" y="24.6016">Person</text><line style="stroke: #A80036; stroke-width: 1.5;" x1="47" x2="109" y1="32.1328" y2="32.1328"/><text fill="#000000" font-family="sans-serif" font-size="11" lengthAdjust="spacingAndGlyphs" textLength="49" x="52" y="46.7676">lastName</text><text fill="#000000" font-family="sans-serif" font-size="11" lengthAdjust="spacingAndGlyphs" textLength="52" x="52" y="59.7227">firstName</text><rect fill="#FEFECE" filter="url(#f1)" height="45.0879" style="stroke: #A80036; stroke-width: 1.5;" width="53" x="6" y="188.5"/><text fill="#000000" font-family="sans-serif" font-size="12" lengthAdjust="spacingAndGlyphs" textLength="32" x="16.5" y="205.1016">Client</text><line style="stroke: #A80036; stroke-width: 1.5;" x1="7" x2="58" y1="212.6328" y2="212.6328"/><text fill="#000000" font-family="sans-serif" font-size="11" lengthAdjust="spacingAndGlyphs" textLength="41" x="12" y="227.2676">balance</text><rect fill="#FEFECE" filter="url(#f1)" height="45.0879" style="stroke: #A80036; stroke-width: 1.5;" width="62" x="93" y="188.5"/><text fill="#000000" font-family="sans-serif" font-size="12" lengthAdjust="spacingAndGlyphs" textLength="56" x="96" y="205.1016">Employee</text><line style="stroke: #A80036; stroke-width: 1.5;" x1="94" x2="154" y1="212.6328" y2="212.6328"/><text fill="#000000" font-family="sans-serif" font-size="11" lengthAdjust="spacingAndGlyphs" textLength="39" x="99" y="227.2676">income</text><path d="M65,86 C56,120 45,162 38,188 " fill="none" style="stroke: #A80036; stroke-width: 1.0;"/><polygon fill="none" points="58.3582,83.705,70,66,71.9402,87.101,58.3582,83.705" style="stroke: #A80036; stroke-width: 1.0;"/><path d="M91,86 C100,120 111,162 118,188 " fill="none" style="stroke: #A80036; stroke-width: 1.0;"/><polygon fill="none" points="84.0598,87.101,86,66,97.6418,83.705,84.0598,87.101" style="stroke: #A80036; stroke-width: 1.0;"/></g></svg>