<?xml version="1.0" encoding="UTF-8" standalone="yes"?><svg xmlns="http://www.w3.org/2000/svg" xmlns:xlink="http://www.w3.org/1999/xlink" height="361pt" style="width:123px;height:361px;" version="1.1" viewBox="0 0 123 361" width="123pt"><defs><filter height="300%" id="f1" width="300%" x="-1" y="-1"><feGaussianBlur result="blurOut" stdDeviation="2.0"/><feColorMatrix in="blurOut" result="blurOut2" type="matrix" values="0 0 0 0 0 0 0 0 0 0 0 0 0 0 0 0 0 0 .4 0"/><feOffset dx="4.0" dy="4.0" in="blurOut2" result="blurOut3"/><feBlend in="SourceGraphic" in2="blurOut3" mode="normal"/></filter></defs><g><ellipse cx="61" cy="18" fill="#000000" filter="url(#f1)" rx="10" ry="10" style="stroke: none; stroke-width: 1.0;"/><rect fill="#FEFECE" filter="url(#f1)" height="266.4883" rx="12.5" ry="12.5" style="stroke: #A80036; stroke-width: 1.5;" width="110" x="6" y="88"/><rect fill="#FFFFFF" height="234" rx="12.5" ry="12.5" style="stroke: #FFFFFF; stroke-width: 1.0;" width="104" x="9" y="117.4883"/><line style="stroke: #A80036; stroke-width: 1.5;" x1="6" x2="116" y1="114.4883" y2="114.4883"/><text fill="#000000" font-family="sans-serif" font-size="14" lengthAdjust="spacingAndGlyphs" textLength="47" x="37.5" y="106.5352">State 1</text><rect fill="#FEFECE" filter="url(#f1)" height="50" rx="12.5" ry="12.5" style="stroke: #A80036; stroke-width: 1.5;" width="67" x="17" y="185.4883"/><line style="stroke: #A80036; stroke-width: 1.5;" x1="17" x2="84" y1="211.9766" y2="211.9766"/><text fill="#000000" font-family="sans-serif" font-size="14" lengthAdjust="spacingAndGlyphs" textLength="47" x="27" y="204.0234">State 2</text><rect fill="#FEFECE" filter="url(#f1)" height="50" rx="12.5" ry="12.5" style="stroke: #A80036; stroke-width: 1.5;" width="67" x="17" y="289.4883"/><line style="stroke: #A80036; stroke-width: 1.5;" x1="17" x2="84" y1="315.9766" y2="315.9766"/><text fill="#000000" font-family="sans-serif" font-size="14" lengthAdjust="spacingAndGlyphs" textLength="47" x="27" y="308.0234">State 3</text><ellipse cx="50" cy="137.4883" fill="#000000" filter="url(#f1)" rx="10" ry="10" style="stroke: none; stroke-width: 1.0;"/><path d="M50,147.4883 C50,156.4883 50,168.4883 50,180.4883 " fill="none" style="stroke: #A80036; stroke-width: 1.0;"/><polygon fill="#A80036" points="50,185.4883,54,176.4883,50,180.4883,46,176.4883,50,185.4883" style="stroke: #A80036; stroke-width: 1.0;"/><path d="M35,235.4883 C32,241.4883 30,247.4883 28,253.4883 C25,263.4883 28,274.4883 32,284.4883 " fill="none" style="stroke: #A80036; stroke-width: 1.0;"/><polygon fill="#A80036" points="34,289.4883,34.3712,279.6464,32.143,284.8459,26.9435,282.6177,34,289.4883" style="stroke: #A80036; stroke-width: 1.0;"/><text fill="#000000" font-family="sans-serif" font-size="13" lengthAdjust="spacingAndGlyphs" textLength="22" x="32" y="267.0566">Ev1</text><path d="M51,289.4883 C52,278.4883 52,265.4883 52,253.4883 C52,249.4883 51,244.4883 51,240.4883 " fill="none" style="stroke: #A80036; stroke-width: 1.0;"/><polygon fill="#A80036" points="51,235.4883,47,244.4883,51,240.4883,55,244.4883,51,235.4883" style="stroke: #A80036; stroke-width: 1.0;"/><text fill="#000000" font-family="sans-serif" font-size="13" lengthAdjust="spacingAndGlyphs" textLength="22" x="53" y="267.0566">Ev2</text><path d="M61,28 C61,39 61,60 61,83 " fill="none" style="stroke: #A80036; stroke-width: 1.0;"/><polygon fill="#A80036" points="61,88,65,79,61,83,57,79,61,88" style="stroke: #A80036; stroke-width: 1.0;"/></g></svg>