<?xml version="1.0" encoding="UTF-8" standalone="yes"?><svg xmlns="http://www.w3.org/2000/svg" xmlns:xlink="http://www.w3.org/1999/xlink" height="298pt" style="width:344px;height:298px;" version="1.1" viewBox="0 0 344 298" width="344pt"><defs><filter height="300%" id="f1" width="300%" x="-1" y="-1"><feGaussianBlur result="blurOut" stdDeviation="2.0"/><feColorMatrix in="blurOut" result="blurOut2" type="matrix" values="0 0 0 0 0 0 0 0 0 0 0 0 0 0 0 0 0 0 .4 0"/><feOffset dx="4.0" dy="4.0" in="blurOut2" result="blurOut3"/><feBlend in="SourceGraphic" in2="blurOut3" mode="normal"/></filter></defs><g><ellipse cx="248" cy="18.5" fill="#FEFECE" filter="url(#f1)" rx="8" ry="8" style="stroke: #A80036; stroke-width: 2.0;"/><path d="M248,26.5 L248,53.5 M235,34.5 L261,34.5 M248,53.5 L235,68.5 M248,53.5 L261,68.5 " fill="#FEFECE" filter="url(#f1)" style="stroke: #A80036; stroke-width: 2.0;"/><text fill="#000000" font-family="sans-serif" font-size="14" lengthAdjust="spacingAndGlyphs" textLength="40" x="228" y="89.0352">Client</text><ellipse cx="248.6482" cy="169.159" fill="#FEFECE" filter="url(#f1)" rx="37.6482" ry="14.659" style="stroke: #A80036; stroke-width: 1.5;"/><text fill="#000000" font-family="sans-serif" font-size="14" lengthAdjust="spacingAndGlyphs" textLength="49" x="224.1482" y="173.9031">Update</text><ellipse cx="247.8701" cy="277.159" fill="#FEFECE" filter="url(#f1)" rx="29.8701" ry="14.659" style="stroke: #A80036; stroke-width: 1.5;"/><text fill="#000000" font-family="sans-serif" font-size="14" lengthAdjust="spacingAndGlyphs" textLength="38" x="228.8701" y="281.9031">Login</text><ellipse cx="41.5269" cy="169.159" fill="#FEFECE" filter="url(#f1)" rx="35.5269" ry="14.659" style="stroke: #A80036; stroke-width: 1.5;"/><text fill="#000000" font-family="sans-serif" font-size="14" lengthAdjust="spacingAndGlyphs" textLength="46" x="18.5269" y="173.9031">Cancel</text><path d="M248,92 C248,112 248,134 248,149 " fill="none" style="stroke: #A80036; stroke-width: 1.0;"/><polygon fill="#A80036" points="248,154,252,145,248,149,244,145,248,154" style="stroke: #A80036; stroke-width: 1.0;"/><path d="M248,184 C248,202 248,236 248,257 " fill="none" style="stroke: #A80036; stroke-width: 1.0; stroke-dasharray: 7.0,7.0;"/><polygon fill="#A80036" points="248,262,252,253,248,257,244,253,248,262" style="stroke: #A80036; stroke-width: 1.0;"/><text fill="#000000" font-family="sans-serif" font-size="13" lengthAdjust="spacingAndGlyphs" textLength="94" x="249" y="227.5684">&lt;&lt; include &gt;&gt;</text><path d="M77,169 C112,169 167,169 205,169 " fill="none" style="stroke: #A80036; stroke-width: 1.0; stroke-dasharray: 7.0,7.0;"/><polygon fill="#A80036" points="210,169,201,165,205,169,201,173,210,169" style="stroke: #A80036; stroke-width: 1.0;"/><text fill="#000000" font-family="sans-serif" font-size="13" lengthAdjust="spacingAndGlyphs" textLength="98" x="94" y="164.5684">&lt;&lt; extends &gt;&gt;</text></g></svg>